<?xml version="1.0" encoding="UTF-8"?>
<svg version="1.1" xmlns="http://www.w3.org/2000/svg" width="512" height="512">
<path d="M0 0 C3.85448154 0.85216061 6.68945966 2.08393341 10.15234375 3.96191406 C10.7457959 4.28027222 11.33924805 4.59863037 11.95068359 4.92663574 C13.8779746 5.96434035 15.79637804 7.01737157 17.71484375 8.07128906 C19.06211842 8.80148574 20.4097794 9.53097006 21.7578125 10.25976562 C30.71824592 15.11869412 39.61723683 20.08771476 48.46777344 25.14404297 C56.17482205 29.54590574 63.96295944 33.78860742 71.80078125 37.953125 C72.66445313 38.41750977 73.528125 38.88189453 74.41796875 39.36035156 C75.55733887 39.9667749 75.55733887 39.9667749 76.71972656 40.58544922 C78.74607515 41.8406348 80.21589763 42.96818359 81.71484375 44.82128906 C82.21484375 48.25878906 82.21484375 48.25878906 81.71484375 51.82128906 C79.47934929 54.53407864 77.63021454 55.67511182 74.14794922 56.23120117 C71.06167012 56.43969216 67.99530606 56.52972207 64.90234375 56.57128906 C63.29069336 56.61576172 63.29069336 56.61576172 61.64648438 56.66113281 C59.00252948 56.73163828 56.35944645 56.78443049 53.71484375 56.82128906 C54.68421875 57.2221875 55.65359375 57.62308594 56.65234375 58.03613281 C98.39619178 75.6094465 129.34571288 105.95862879 146.71484375 147.82128906 C154.18050472 167.00389016 156.48372387 186.39020413 157.71484375 206.82128906 C158.55144531 205.94279297 159.38804687 205.06429687 160.25 204.15917969 C163.36786323 200.89619953 166.51239186 197.66002973 169.66552734 194.43115234 C171.02480413 193.03171584 172.37680579 191.62517372 173.72119141 190.21142578 C175.65855935 188.17668827 177.62092411 186.16920309 179.58984375 184.16503906 C180.18289307 183.53069946 180.77594238 182.89635986 181.38696289 182.24279785 C184.49068184 179.13584541 186.53493779 177.43093561 191.03515625 177.33105469 C194.71484375 177.82128906 194.71484375 177.82128906 196.71484375 179.32128906 C199.12431987 185.34497935 197.46555809 192.4742987 196.40234375 198.69628906 C196.26916748 199.50622314 196.13599121 200.31615723 195.9987793 201.15063477 C195.57678556 203.70855461 195.14597305 206.26489486 194.71484375 208.82128906 C194.42519431 210.56728554 194.13612621 212.31337857 193.84765625 214.05957031 C193.14343162 218.31462175 192.43130033 222.56828086 191.71484375 226.82128906 C192.73320312 226.57894531 193.7515625 226.33660156 194.80078125 226.08691406 C198.60810098 225.18337442 202.41810883 224.29164789 206.22900391 223.40332031 C207.87265501 223.01847802 209.51557741 222.63050863 211.15771484 222.23925781 C213.5290384 221.67486265 215.90282399 221.12206169 218.27734375 220.57128906 C219.00163574 220.39629883 219.72592773 220.22130859 220.47216797 220.04101562 C225.32926977 218.92986276 229.72780273 218.53140724 234.71484375 218.82128906 C237.21484375 220.44628906 237.21484375 220.44628906 238.71484375 222.82128906 C239.71111036 228.97579588 236.69014783 232.9015434 233.52734375 237.88378906 C232.98561523 238.76083496 232.44388672 239.63788086 231.88574219 240.54150391 C230.74228927 242.38950531 229.59291351 244.23385357 228.43798828 246.07470703 C226.8086145 248.6718245 225.19422181 251.27747889 223.5859375 253.88769531 C221.46094718 257.33449314 219.32898684 260.77681649 217.19140625 264.21582031 C214.06628576 269.2477484 210.96267919 274.2926786 207.86303711 279.34033203 C205.1707672 283.7229459 202.4723002 288.10172529 199.77294922 292.47998047 C198.37674991 294.74669266 196.98224463 297.01435356 195.59033203 299.28369141 C193.53492769 302.63405235 191.46898031 305.97784393 189.40234375 309.32128906 C188.77408691 310.34843018 188.14583008 311.37557129 187.49853516 312.43383789 C186.91378418 313.37638428 186.3290332 314.31893066 185.7265625 315.29003906 C185.21569092 316.11955078 184.70481934 316.9490625 184.1784668 317.80371094 C182.71484375 319.82128906 182.71484375 319.82128906 179.71484375 321.82128906 C177.453125 322.01660156 177.453125 322.01660156 175.02734375 321.94628906 C174.21910156 321.92824219 173.41085937 321.91019531 172.578125 321.89160156 C171.65580078 321.85679687 171.65580078 321.85679687 170.71484375 321.82128906 C170.79734375 322.97628906 170.87984375 324.13128906 170.96484375 325.32128906 C170.95418652 331.33196876 168.60579369 335.7634906 164.58984375 340.13378906 C157.26776437 344.43153131 148.51910233 345.53267025 140.24169922 346.81420898 C139.14118225 346.99021133 138.04066528 347.16621368 136.90679932 347.34754944 C133.29959945 347.92251914 129.69091429 348.48745711 126.08203125 349.05175781 C123.55951285 349.45060702 121.0370631 349.84989062 118.51467896 350.24958801 C113.24175907 351.08353321 107.96811999 351.91270449 102.69384766 352.73803711 C96.61339578 353.68960197 90.53448455 354.65056211 84.45629585 355.61646956 C78.58282881 356.54959149 72.7082736 357.47571065 66.83322525 358.39882851 C64.34432247 358.79057608 61.85569894 359.18410229 59.36736679 359.57945824 C55.88888864 360.1311628 52.4092543 360.67489668 48.92919922 361.21655273 C47.39693192 361.46195297 47.39693192 361.46195297 45.83370972 361.71231079 C38.12169148 362.89941585 31.01203564 363.16781067 23.28125 361.94238281 C20.94814393 361.83229714 18.9385409 361.99351087 16.62890625 362.27832031 C-11.50897769 365.6789045 -40.5267147 361.07667586 -65.94360352 348.68017578 C-67.18194946 348.10420654 -67.18194946 348.10420654 -68.4453125 347.51660156 C-69.16340088 347.1661377 -69.88148926 346.81567383 -70.62133789 346.45458984 C-77.65482602 344.78243622 -85.14140027 347.40048073 -91.9140625 349.32519531 C-92.78916977 349.56793686 -93.66427704 349.81067841 -94.56590271 350.06077576 C-97.32834505 350.82862627 -100.08798991 351.60602764 -102.84765625 352.38378906 C-104.73354645 352.90981651 -106.61961271 353.43521317 -108.50585938 353.95996094 C-113.10102474 355.23979138 -117.69370863 356.52818749 -122.28515625 357.82128906 C-122.383125 358.51996094 -122.48109375 359.21863281 -122.58203125 359.93847656 C-122.7315625 360.84855469 -122.88109375 361.75863281 -123.03515625 362.69628906 C-123.174375 363.60121094 -123.31359375 364.50613281 -123.45703125 365.43847656 C-124.28515625 367.82128906 -124.28515625 367.82128906 -126.01515198 368.95205688 C-128.63101909 369.95372719 -130.63443802 370.08810279 -133.43334961 370.11181641 C-134.45798813 370.12457611 -135.48262665 370.13733582 -136.53831482 370.15048218 C-138.18997398 370.15382065 -138.18997398 370.15382065 -139.875 370.15722656 C-141.01167618 370.16388336 -142.14835236 370.17054016 -143.31947327 370.17739868 C-145.72264996 370.18752088 -148.12585474 370.19221584 -150.52905273 370.19189453 C-154.20538601 370.19626851 -157.88051967 370.23259697 -161.55664062 370.27050781 C-163.89192298 370.27637583 -166.22721103 370.28034532 -168.5625 370.28222656 C-169.66158188 370.2965976 -170.76066376 370.31096863 -171.89305115 370.32577515 C-179.4751488 370.28038204 -179.4751488 370.28038204 -183.47875977 368.01123047 C-185.28515625 365.82128906 -185.28515625 365.82128906 -185.91015625 362.32128906 C-185.28515625 358.82128906 -185.28515625 358.82128906 -182.91015625 356.38378906 C-180.28515625 354.82128906 -180.28515625 354.82128906 -178.28515625 354.82128906 C-178.28515625 328.09128906 -178.28515625 301.36128906 -178.28515625 273.82128906 C-179.93515625 273.49128906 -181.58515625 273.16128906 -183.28515625 272.82128906 C-185.61094726 269.33260255 -185.70381082 267.92410387 -185.28515625 263.82128906 C-184.23510742 261.66796875 -184.23510742 261.66796875 -182.28515625 259.82128906 C-179.65061277 259.39450943 -177.41285189 259.2165051 -174.7734375 259.21191406 C-174.04521286 259.19537781 -173.31698822 259.17884155 -172.56669617 259.1618042 C-170.2435976 259.1132671 -167.92115375 259.09194237 -165.59765625 259.07128906 C-164.02145133 259.04313388 -162.44527699 259.01320707 -160.86914062 258.98144531 C-157.00786642 258.90750762 -153.14695686 258.85796874 -149.28515625 258.82128906 C-149.45644043 258.24797852 -149.62772461 257.67466797 -149.80419922 257.08398438 C-156.12625655 235.79986698 -156.12625655 235.79986698 -157.28515625 225.82128906 C-157.39472656 224.99757813 -157.50429687 224.17386719 -157.6171875 223.32519531 C-161.81815977 186.52467825 -153.19909529 146.12455096 -130.55859375 116.37207031 C-128.96858365 113.91994491 -128.96858365 113.91994491 -129.98291016 111.54003906 C-131.44193653 108.49397275 -133.08727129 105.65358273 -134.84765625 102.77050781 C-135.19563263 102.19888916 -135.54360901 101.62727051 -135.90213013 101.03833008 C-136.64400977 99.82101341 -137.38763596 98.6047597 -138.13287354 97.38949585 C-139.29268716 95.49649743 -140.44556831 93.59942062 -141.59716797 91.70141602 C-144.87828743 86.30547088 -148.17567993 80.92815657 -151.66796875 75.66503906 C-152.14105469 74.94485596 -152.61414063 74.22467285 -153.1015625 73.48266602 C-153.94397315 72.21197757 -154.80227157 70.95160827 -155.6796875 69.70483398 C-157.79080224 66.51084701 -158.28950453 64.90754478 -158.09375 61.02441406 C-157.28515625 57.82128906 -157.28515625 57.82128906 -156.22265625 55.88378906 C-150.969785 53.00318225 -143.65798242 55.1731295 -138.13671875 56.53613281 C-137.39811615 56.7113295 -136.65951355 56.88652618 -135.89852905 57.06703186 C-134.35306291 57.43528307 -132.80859922 57.80776534 -131.26513672 58.18432617 C-128.89759533 58.76185311 -126.52732937 59.32684117 -124.15625 59.88964844 C-122.64956836 60.25026191 -121.14305162 60.61156521 -119.63671875 60.97363281 C-118.92842926 61.14346176 -118.22013977 61.31329071 -117.49038696 61.48826599 C-112.52109116 62.70332161 -112.52109116 62.70332161 -110.28515625 63.82128906 C-110.50244385 62.64622803 -110.71973145 61.47116699 -110.94360352 60.26049805 C-111.75043603 55.88096705 -112.5427507 51.49891126 -113.33081055 47.1159668 C-113.67323659 45.22299941 -114.01954294 43.33072952 -114.36987305 41.43920898 C-114.87411415 38.71286412 -115.36413103 35.98427674 -115.8515625 33.25488281 C-116.00984024 32.41606064 -116.16811798 31.57723846 -116.33119202 30.71299744 C-117.27725079 25.31342653 -118.04343011 19.84942737 -115.16015625 14.88378906 C-112.14972103 13.17787577 -109.68072758 13.52265635 -106.28515625 13.82128906 C-103.73500061 15.52966309 -103.73500061 15.52966309 -101.35961914 17.95214844 C-100.00901146 19.30354919 -100.00901146 19.30354919 -98.63111877 20.68225098 C-97.67296673 21.67614431 -96.71520697 22.67041595 -95.7578125 23.66503906 C-94.76044516 24.67547172 -93.76151383 25.68436281 -92.76109314 26.69177246 C-90.13965476 29.33986281 -87.53992115 32.00829462 -84.94421387 34.68157959 C-82.28879697 37.40876726 -79.61330511 40.11610155 -76.93945312 42.82519531 C-71.70151281 48.13807696 -66.48833766 53.47432098 -61.28515625 58.82128906 C-52.70515625 56.18128906 -44.12515625 53.54128906 -35.28515625 50.82128906 C-34.95515625 48.51128906 -34.62515625 46.20128906 -34.28515625 43.82128906 C-33.12210083 41.39848328 -33.12210083 41.39848328 -31.64892578 39.20288086 C-31.09810333 38.36899338 -30.54728088 37.5351059 -29.97976685 36.6759491 C-29.38187347 35.79965347 -28.7839801 34.92335785 -28.16796875 34.02050781 C-27.24852982 32.64412895 -27.24852982 32.64412895 -26.31051636 31.23994446 C-25.01687073 29.30885279 -23.71710117 27.38185121 -22.41162109 25.45874023 C-20.41111027 22.51019519 -18.43072636 19.54890755 -16.453125 16.58496094 C-15.19256423 14.70853146 -13.93088366 12.83285366 -12.66796875 10.95800781 C-12.07412384 10.07159103 -11.48027893 9.18517426 -10.86843872 8.27189636 C-10.31131195 7.45376968 -9.75418518 6.63564301 -9.18017578 5.79272461 C-8.69243683 5.07215378 -8.20469788 4.35158295 -7.70217896 3.60917664 C-5.29296566 0.56942117 -3.88387753 -0.21128109 0 0 Z " fill="#FEE3B7" transform="translate(229.28515625,71.1787109375)"/>
<path d="M0 0 C4.82911224 4.48267193 8.44928476 10.34022952 12.08984375 15.78515625 C12.63862686 16.60447128 13.18740997 17.42378632 13.75282288 18.26792908 C14.90089324 19.98805238 16.04615694 21.710052 17.1887207 23.43383789 C18.94172129 26.06884519 20.71768735 28.68740714 22.49414062 31.30664062 C23.61083026 32.98601241 24.72611496 34.66631943 25.83984375 36.34765625 C26.37302719 37.12593277 26.90621063 37.90420929 27.45555115 38.70606995 C31.0156812 44.163888 31.0156812 44.163888 30.93579102 48.42358398 C29.81657176 51.50501387 28.90193144 52.50757812 26 54 C24.68 54 23.36 54 22 54 C22.53109375 55.0621875 23.0621875 56.124375 23.609375 57.21875 C27.859375 65.71875 27.859375 65.71875 28.91992188 67.84765625 C29.65775139 69.31797836 30.40425624 70.78397078 31.15820312 72.24609375 C34 77.78935185 34 77.78935185 34 80 C39.02218715 76.91518213 42.98649828 73.29149302 47.12109375 69.109375 C47.78407974 68.44593079 48.44706573 67.78248657 49.13014221 67.09893799 C50.52672111 65.69934991 51.92088082 64.29734412 53.31274414 62.89306641 C55.42221591 60.76541581 57.53950144 58.64579927 59.65820312 56.52734375 C61.02130424 55.15932322 62.38394925 53.79084804 63.74609375 52.421875 C64.36922958 51.79762634 64.99236542 51.17337769 65.63438416 50.5302124 C69.35422212 46.77087036 72.8855677 42.89477352 76.34562683 38.89556885 C80.18572977 34.49560659 84.26110062 30.3175801 88.3425293 26.14257812 C89.41216137 25.04101918 90.47364526 23.93149334 91.52709961 22.81445312 C93.07066461 21.17955715 94.63902312 19.57250397 96.21484375 17.96875 C96.67656479 17.46887573 97.13828583 16.96900146 97.61399841 16.45397949 C100.38848735 13.69540727 102.41244357 12.67889375 106.23657227 12.59570312 C110 13 110 13 112 14.5 C114.40947612 20.52369029 112.75071434 27.65300963 111.6875 33.875 C111.4877356 35.08990112 111.4877356 35.08990112 111.28393555 36.3293457 C110.86194181 38.88726555 110.4311293 41.4436058 110 44 C109.71035056 45.74599648 109.42128246 47.49208951 109.1328125 49.23828125 C108.42858787 53.49333269 107.71645658 57.74699179 107 62 C108.01835937 61.75765625 109.03671875 61.5153125 110.0859375 61.265625 C113.89325723 60.36208535 117.70326508 59.47035882 121.51416016 58.58203125 C123.15781126 58.19718896 124.80073366 57.80921956 126.44287109 57.41796875 C128.81419465 56.85357359 131.18798024 56.30077263 133.5625 55.75 C134.28679199 55.57500977 135.01108398 55.40001953 135.75732422 55.21972656 C140.61442602 54.1085737 145.01295898 53.71011818 150 54 C152.5 55.625 152.5 55.625 154 58 C154.99626661 64.15450682 151.97530408 68.08025433 148.8125 73.0625 C148.27077148 73.9395459 147.72904297 74.8165918 147.17089844 75.72021484 C146.02744552 77.56821624 144.87806976 79.4125645 143.72314453 81.25341797 C142.09377075 83.85053544 140.47937806 86.45618983 138.87109375 89.06640625 C136.74610343 92.51320408 134.61414309 95.95552742 132.4765625 99.39453125 C129.35144201 104.42645934 126.24783544 109.47138953 123.14819336 114.51904297 C120.45592345 118.90165684 117.75745645 123.28043623 115.05810547 127.65869141 C113.66190616 129.92540359 112.26740088 132.1930645 110.87548828 134.46240234 C108.82008394 137.81276329 106.75413656 141.15655487 104.6875 144.5 C104.05924316 145.52714111 103.43098633 146.55428223 102.78369141 147.61254883 C102.19894043 148.55509521 101.61418945 149.4976416 101.01171875 150.46875 C100.50084717 151.29826172 99.98997559 152.12777344 99.46362305 152.98242188 C98 155 98 155 95 157 C92.73828125 157.1953125 92.73828125 157.1953125 90.3125 157.125 C89.50425781 157.10695313 88.69601562 157.08890625 87.86328125 157.0703125 C87.24839844 157.04710937 86.63351562 157.02390625 86 157 C86.0825 158.155 86.165 159.31 86.25 160.5 C86.23934277 166.5106797 83.89094994 170.94220154 79.875 175.3125 C72.55292062 179.61024225 63.80425858 180.71138119 55.52685547 181.99291992 C54.4263385 182.16892227 53.32582153 182.34492462 52.19195557 182.52626038 C48.5847557 183.10123008 44.97607054 183.66616805 41.3671875 184.23046875 C38.8446691 184.62931796 36.32221935 185.02860156 33.79983521 185.42829895 C28.52691532 186.26224414 23.25327624 187.09141543 17.97900391 187.91674805 C11.89855203 188.8683129 5.8196408 189.82927304 -0.2585479 190.7951805 C-6.13201494 191.72830243 -12.00657015 192.65442158 -17.8816185 193.57753944 C-20.37052128 193.96928702 -22.85914481 194.36281323 -25.34747696 194.75816917 C-28.82595511 195.30987374 -32.30558945 195.85360762 -35.78564453 196.39526367 C-36.80715607 196.55886383 -37.8286676 196.72246399 -38.88113403 196.89102173 C-46.59315227 198.07812679 -53.70280811 198.34652161 -61.43359375 197.12109375 C-63.76669982 197.01100808 -65.77630285 197.1722218 -68.0859375 197.45703125 C-96.22382144 200.85761544 -125.24155845 196.2553868 -150.65844727 183.85888672 C-151.89679321 183.28291748 -151.89679321 183.28291748 -153.16015625 182.6953125 C-153.87824463 182.34484863 -154.59633301 181.99438477 -155.33618164 181.63330078 C-162.36966977 179.96114716 -169.85624402 182.57919167 -176.62890625 184.50390625 C-177.50401352 184.7466478 -178.37912079 184.98938934 -179.28074646 185.23948669 C-182.0431888 186.0073372 -184.80283366 186.78473858 -187.5625 187.5625 C-189.4483902 188.08852744 -191.33445646 188.6139241 -193.22070312 189.13867188 C-197.81586849 190.41850231 -202.40855238 191.70689842 -207 193 C-207.09796875 193.69867188 -207.1959375 194.39734375 -207.296875 195.1171875 C-207.44640625 196.02726563 -207.5959375 196.93734375 -207.75 197.875 C-207.88921875 198.77992188 -208.0284375 199.68484375 -208.171875 200.6171875 C-209 203 -209 203 -210.72999573 204.13076782 C-213.34586284 205.13243812 -215.34928177 205.26681373 -218.14819336 205.29052734 C-219.17283188 205.30328705 -220.1974704 205.31604675 -221.25315857 205.32919312 C-222.35426468 205.33141876 -223.45537079 205.33364441 -224.58984375 205.3359375 C-226.29485802 205.3459227 -226.29485802 205.3459227 -228.03431702 205.35610962 C-230.43749371 205.36623182 -232.84069849 205.37092677 -235.24389648 205.37060547 C-238.92022976 205.37497945 -242.59536342 205.41130791 -246.27148438 205.44921875 C-248.60676673 205.45508677 -250.94205478 205.45905626 -253.27734375 205.4609375 C-254.37642563 205.47530853 -255.47550751 205.48967957 -256.6078949 205.50448608 C-264.18999255 205.45909298 -264.18999255 205.45909298 -268.19360352 203.18994141 C-270 201 -270 201 -270.625 197.5 C-270 194 -270 194 -267.625 191.5625 C-265 190 -265 190 -263 190 C-263 163.27 -263 136.54 -263 109 C-264.65 108.67 -266.3 108.34 -268 108 C-270.32579101 104.51131349 -270.41865457 103.10281481 -270 99 C-268.80760193 96.83995056 -268.80760193 96.83995056 -267 95 C-264.61610413 94.49879456 -264.61610413 94.49879456 -261.76586914 94.49829102 C-260.69788589 94.48891006 -259.62990265 94.47952911 -258.52955627 94.46986389 C-257.37640427 94.48109787 -256.22325226 94.49233185 -255.03515625 94.50390625 C-253.85030136 94.50245102 -252.66544647 94.50099579 -251.44468689 94.49949646 C-248.93713932 94.50115763 -246.42958178 94.512743 -243.92211914 94.53344727 C-240.08110254 94.56235997 -236.24146881 94.55406795 -232.40039062 94.54101562 C-229.96613911 94.54725403 -227.53189197 94.55564577 -225.09765625 94.56640625 C-223.37096458 94.56200279 -223.37096458 94.56200279 -221.60939026 94.55751038 C-220.53825485 94.57019455 -219.46711945 94.58287872 -218.36352539 94.59594727 C-217.42215225 94.60135025 -216.48077911 94.60675323 -215.51087952 94.61231995 C-212.53110351 95.07239767 -211.12518562 95.87804785 -209 98 C-209 98.99 -209 99.98 -209 101 C-197.19044096 99.31620086 -186.59051114 96.40714111 -175.5 92.0625 C-161.45718772 86.5980652 -147.19872076 81.68893967 -132 81 C-131.14873535 80.95665527 -130.2974707 80.91331055 -129.42041016 80.86865234 C-111.25320705 80.1443455 -94.04716225 81.87320056 -79.8125 94.3125 C-75.63136674 98.26244896 -71.383617 102.32791958 -68 107 C-68 107.66 -68 108.32 -68 109 C-58.1 109 -48.2 109 -38 109 C-38 90.85 -38 72.7 -38 54 C-51.97150216 54.15817866 -51.97150216 54.15817866 -65.94238281 54.36035156 C-67.69595365 54.37203572 -69.44953534 54.38222819 -71.203125 54.390625 C-72.1111084 54.41108887 -73.0190918 54.43155273 -73.95458984 54.45263672 C-80.35998229 54.45618541 -80.35998229 54.45618541 -83.57714844 52.16308594 C-85.54321307 49.17418192 -85.65709023 47.50448124 -85 44 C-80.50211569 39.59680799 -74.63748 36.97816656 -69.125 34.0625 C-60.89823777 29.66264571 -52.72910288 25.18429357 -44.625 20.5625 C-40.75331118 18.36910559 -36.87733752 16.18339102 -33 14 C-31.87045898 13.36223633 -30.74091797 12.72447266 -29.57714844 12.06738281 C-26.06234574 10.08741508 -22.53185416 8.13688715 -19 6.1875 C-17.361521 5.26142944 -17.361521 5.26142944 -15.68994141 4.31665039 C-5.26342085 -1.38822725 -5.26342085 -1.38822725 0 0 Z " fill="#4E261F" transform="translate(314,236)"/>
<path d="M0 0 C3.85448154 0.85216061 6.68945966 2.08393341 10.15234375 3.96191406 C10.7457959 4.28027222 11.33924805 4.59863037 11.95068359 4.92663574 C13.8779746 5.96434035 15.79637804 7.01737157 17.71484375 8.07128906 C19.06211842 8.80148574 20.4097794 9.53097006 21.7578125 10.25976562 C30.71824592 15.11869412 39.61723683 20.08771476 48.46777344 25.14404297 C56.17482205 29.54590574 63.96295944 33.78860742 71.80078125 37.953125 C73.09628906 38.64970215 73.09628906 38.64970215 74.41796875 39.36035156 C75.55733887 39.9667749 75.55733887 39.9667749 76.71972656 40.58544922 C78.74607515 41.8406348 80.21589763 42.96818359 81.71484375 44.82128906 C82.21484375 48.25878906 82.21484375 48.25878906 81.71484375 51.82128906 C79.05859128 54.57393779 77.40797818 55.71672137 73.59960938 56.29125977 C72.45169922 56.27667725 71.30378906 56.26209473 70.12109375 56.24707031 C68.84234375 56.23869141 67.56359375 56.2303125 66.24609375 56.22167969 C64.90234144 56.19248895 63.55859144 56.16319167 62.21484375 56.13378906 C60.91546875 56.12412109 59.61609375 56.11445312 58.27734375 56.10449219 C50.04749691 56.00984895 41.91807818 55.49158678 33.71484375 54.82128906 C33.72594681 56.03793747 33.73704987 57.25458588 33.74848938 58.50810242 C33.84982012 69.97033921 33.92478764 81.4324852 33.97390461 92.89506817 C34.00000511 98.78822678 34.03541237 104.681024 34.09204102 110.57397461 C34.14634322 116.26037463 34.17626087 121.9464269 34.18922997 127.63306618 C34.19847296 129.80324593 34.21652237 131.97340652 34.24349403 134.14343834 C34.27975969 137.18190097 34.28479002 140.21892434 34.2824707 143.25756836 C34.30943527 144.60516235 34.30943527 144.60516235 34.33694458 145.97998047 C34.30345198 150.03155475 34.0042398 152.32319812 31.93852234 155.87858582 C26.95741235 158.88037966 22.28110247 158.5180327 16.56835938 158.46826172 C14.72125618 158.48140411 14.72125618 158.48140411 12.83683777 158.49481201 C9.46652955 158.51303181 6.09775877 158.50878651 2.72753716 158.49291658 C-0.80287839 158.48023755 -4.33322927 158.49200323 -7.86364746 158.49984741 C-13.79186772 158.50893823 -19.7197763 158.49697131 -25.64794922 158.47314453 C-32.49703305 158.44593388 -39.34537266 158.45474848 -46.19443846 158.48227656 C-52.07998372 158.50498315 -57.96530523 158.50816028 -63.85088015 158.49508321 C-67.36386084 158.48729704 -70.87649198 158.4862236 -74.38945007 158.50276566 C-78.3061505 158.51992135 -82.22202062 158.49612923 -86.13867188 158.46826172 C-87.88124016 158.48344345 -87.88124016 158.48344345 -89.65901184 158.49893188 C-97.52459226 158.39511884 -97.52459226 158.39511884 -101.42596436 155.45161438 C-103.35921524 152.71651277 -105.2278477 150.00756077 -106.95703125 147.13769531 C-107.61695068 146.05198242 -108.27687012 144.96626953 -108.95678711 143.84765625 C-109.29644501 143.2815564 -109.63610291 142.71545654 -109.98605347 142.13220215 C-111.40401644 139.76905426 -112.83738691 137.41539606 -114.27012634 135.06118774 C-115.31765317 133.33961986 -116.36319021 131.61684176 -117.40869141 129.89404297 C-119.63153182 126.25409119 -121.90202214 122.64948838 -124.22265625 119.07128906 C-124.91101563 118.00910156 -125.599375 116.94691406 -126.30859375 115.85253906 C-126.96085937 114.85222656 -127.613125 113.85191406 -128.28515625 112.82128906 C-136.2638979 100.5851161 -143.90664473 88.14576116 -151.51757812 75.6784668 C-153.06278934 73.18073104 -154.65902176 70.72619501 -156.26953125 68.27050781 C-158.28515625 64.82128906 -158.28515625 64.82128906 -158.28515625 61.00878906 C-156.77178727 56.18492543 -156.77178727 56.18492543 -154.28515625 54.82128906 C-148.58639049 54.54740624 -143.65332179 55.17428005 -138.13671875 56.53613281 C-137.39811615 56.7113295 -136.65951355 56.88652618 -135.89852905 57.06703186 C-134.35306291 57.43528307 -132.80859922 57.80776534 -131.26513672 58.18432617 C-128.89759533 58.76185311 -126.52732937 59.32684117 -124.15625 59.88964844 C-122.64956836 60.25026191 -121.14305162 60.61156521 -119.63671875 60.97363281 C-118.92842926 61.14346176 -118.22013977 61.31329071 -117.49038696 61.48826599 C-112.52109116 62.70332161 -112.52109116 62.70332161 -110.28515625 63.82128906 C-110.50244385 62.64622803 -110.71973145 61.47116699 -110.94360352 60.26049805 C-111.75043603 55.88096705 -112.5427507 51.49891126 -113.33081055 47.1159668 C-113.67323659 45.22299941 -114.01954294 43.33072952 -114.36987305 41.43920898 C-114.87411415 38.71286412 -115.36413103 35.98427674 -115.8515625 33.25488281 C-116.00984024 32.41606064 -116.16811798 31.57723846 -116.33119202 30.71299744 C-117.27725079 25.31342653 -118.04343011 19.84942737 -115.16015625 14.88378906 C-112.14972103 13.17787577 -109.68072758 13.52265635 -106.28515625 13.82128906 C-103.73500061 15.52966309 -103.73500061 15.52966309 -101.35961914 17.95214844 C-100.45921402 18.85308228 -99.5588089 19.75401611 -98.63111877 20.68225098 C-97.67296673 21.67614431 -96.71520697 22.67041595 -95.7578125 23.66503906 C-94.76044516 24.67547172 -93.76151383 25.68436281 -92.76109314 26.69177246 C-90.13965476 29.33986281 -87.53992115 32.00829462 -84.94421387 34.68157959 C-82.28879697 37.40876726 -79.61330511 40.11610155 -76.93945312 42.82519531 C-71.70151281 48.13807696 -66.48833766 53.47432098 -61.28515625 58.82128906 C-52.70515625 56.18128906 -44.12515625 53.54128906 -35.28515625 50.82128906 C-34.95515625 48.51128906 -34.62515625 46.20128906 -34.28515625 43.82128906 C-33.12210083 41.39848328 -33.12210083 41.39848328 -31.64892578 39.20288086 C-30.82269211 37.95204964 -30.82269211 37.95204964 -29.97976685 36.6759491 C-29.38187347 35.79965347 -28.7839801 34.92335785 -28.16796875 34.02050781 C-27.24852982 32.64412895 -27.24852982 32.64412895 -26.31051636 31.23994446 C-25.01687073 29.30885279 -23.71710117 27.38185121 -22.41162109 25.45874023 C-20.41111027 22.51019519 -18.43072636 19.54890755 -16.453125 16.58496094 C-15.19256423 14.70853146 -13.93088366 12.83285366 -12.66796875 10.95800781 C-12.07412384 10.07159103 -11.48027893 9.18517426 -10.86843872 8.27189636 C-10.31131195 7.45376968 -9.75418518 6.63564301 -9.18017578 5.79272461 C-8.69243683 5.07215378 -8.20469788 4.35158295 -7.70217896 3.60917664 C-5.29296566 0.56942117 -3.88387753 -0.21128109 0 0 Z " fill="#4E261E" transform="translate(229.28515625,71.1787109375)"/>
<path d="M0 0 C4.82950691 4.00327762 8.46935607 7.71055051 11.4519043 13.26049805 C13.22760894 15.94359252 14.17467795 17.33361766 17.24282837 18.39126587 C20.09441144 18.66189769 22.8250837 18.65413832 25.6875 18.546875 C27.24086311 18.54683723 27.24086311 18.54683723 28.8256073 18.54679871 C32.12912842 18.54090725 35.42780476 18.47535077 38.73046875 18.40234375 C42.02159363 18.35577919 45.31175515 18.32241784 48.60319519 18.31144714 C50.64697451 18.30198286 52.6908079 18.27107301 54.73384094 18.21504211 C61.94332138 18.14355187 68.39422801 19.26061549 73.80207825 24.36994934 C78.28572436 29.33418587 80.04191845 32.8239198 79.91796875 39.58984375 C71.57050496 39.87309893 63.22517955 40.08362442 54.87403679 40.21158981 C50.99221201 40.27313992 47.11376527 40.35593059 43.23388672 40.49511719 C21.36839157 41.25888852 4.60866301 38.58519245 -15.10275269 28.79302979 C-18.46497861 27.4351899 -21.47415897 26.88437639 -25.08203125 26.58984375 C-27.16536458 27.50651042 -27.16536458 27.50651042 -28.08203125 29.58984375 C-28.63043976 33.57463023 -28.63043976 33.57463023 -26.97596645 37.07095718 C-7.60280854 52.60772383 20.06931453 54.63425885 43.69025731 54.14542484 C47.794344 54.07675133 51.89825658 54.09253678 56.00279236 54.09832764 C63.71386827 54.09751284 71.4225479 54.02827464 79.13294071 53.93040919 C90.50987427 53.78949971 101.88727616 53.76137848 113.2649374 53.72625351 C114.94716855 53.7208649 116.62939951 53.71541426 118.31163025 53.7098999 C119.13223464 53.70729904 119.95283903 53.70469818 120.79831022 53.7020185 C125.65939959 53.68432869 130.51991849 53.64821986 135.38074696 53.59500265 C138.37772929 53.56281271 141.3747501 53.53767522 144.37180519 53.51333427 C145.76267121 53.50000694 147.15350818 53.48311861 148.54428482 53.46247292 C150.43554565 53.43458137 152.32698531 53.41970435 154.21839905 53.40557861 C155.27724839 53.39292591 156.33609774 53.38027321 157.42703342 53.36723709 C159.91796875 53.58984375 159.91796875 53.58984375 161.91796875 55.58984375 C161.54296875 58.21484375 161.54296875 58.21484375 160.91796875 60.58984375 C152.71683537 62.66589367 144.53530486 64.19731351 136.17871094 65.46850586 C131.22061424 66.22310446 126.28781071 67.05315437 121.35546875 67.96484375 C110.95986737 69.86665253 100.48387234 71.29652496 90.02319336 72.78857422 C83.40079753 73.73917075 76.82264968 74.7533966 70.2722168 76.12768555 C65.72498658 77.02034414 61.13573492 77.60988262 56.54296875 78.21484375 C55.11597656 78.4159375 55.11597656 78.4159375 53.66015625 78.62109375 C40.22430168 80.40043665 28.50844642 79.0293342 15.34835815 76.25631714 C12.42268126 75.64017379 9.49423924 75.03912927 6.56469727 74.44165039 C-0.70596367 72.95565908 -7.97133153 71.44443031 -15.23693848 69.93395996 C-21.39393503 68.65498418 -27.55279357 67.3857741 -33.71438599 66.12911987 C-36.58111912 65.54036696 -39.44467331 64.93764569 -42.30834961 64.33422852 C-58.76769244 60.90803101 -58.76769244 60.90803101 -75.30859375 62.9453125 C-76.35184814 63.23583496 -77.39510254 63.52635742 -78.4699707 63.82568359 C-79.53820068 64.13973145 -80.60643066 64.4537793 -81.70703125 64.77734375 C-82.83133545 65.09396973 -83.95563965 65.4105957 -85.11401367 65.73681641 C-87.37553831 66.37486007 -89.6352776 67.01927031 -91.89306641 67.67041016 C-95.61508865 68.7435334 -99.3448672 69.78652801 -103.07763672 70.8215332 C-104.57378259 71.23695411 -106.06897864 71.65581821 -107.56298828 72.07885742 C-111.06594336 73.06600737 -114.50510886 73.87445927 -118.08203125 74.58984375 C-118.08203125 53.79984375 -118.08203125 33.00984375 -118.08203125 11.58984375 C-111.48203125 10.26984375 -104.88203125 8.94984375 -98.08203125 7.58984375 C-94.19249377 6.3647734 -90.52911007 5.15146753 -86.76953125 3.65234375 C-84.91187736 2.94941247 -83.05380324 2.24759074 -81.1953125 1.546875 C-79.88167725 1.04341553 -79.88167725 1.04341553 -78.54150391 0.52978516 C-53.90071225 -8.88723369 -23.2641469 -17.15348918 0 0 Z " fill="#FDDCD3" transform="translate(224.08203125,339.41015625)"/>
<path d="M0 0 C8.90048527 1.18855363 17.55520665 2.97752548 26.2555542 5.16976929 C29.85308134 6.07526242 33.45545677 6.96088027 37.05859375 7.84375 C37.7972467 8.02475754 38.53589966 8.20576508 39.29693604 8.39225769 C48.36729069 10.59847507 57.49222216 12.55419142 66.6262207 14.47729492 C69.11131116 15.00723424 71.59015205 15.56723687 74.06225586 16.15478516 C76.80464901 16.79119985 79.48429699 17.17688575 82.28344727 17.46630859 C99.18750436 19.7924565 109.41919595 32.76849428 120.55560303 44.53601074 C123.29751982 47.41585917 126.08396328 50.25198985 128.86523438 53.09375 C145 69.63877843 145 69.63877843 145 71 C131.82212609 71.2318188 118.644738 71.40944248 105.46523952 71.51812172 C99.34515243 71.57028664 93.22646132 71.6410234 87.10717773 71.75439453 C81.20021444 71.86314568 75.29459258 71.92286143 69.3867054 71.94877243 C67.13428691 71.96723366 64.88194097 72.00328697 62.63009453 72.05730057 C44.98508331 72.4636616 44.98508331 72.4636616 40.13459778 68.88725281 C38.28321488 66.29595464 37.14479605 63.96030667 36 61 C34.99004088 59.27794114 33.95756124 57.56872026 32.89453125 55.87890625 C31.86392885 54.10866395 30.83668114 52.33646508 29.8125 50.5625 C25.61804973 43.37930641 21.34369174 36.26605838 16.875 29.25 C12.79426728 22.83616008 8.73864369 16.40914902 4.75 9.9375 C4.27159668 9.16889648 3.79319336 8.40029297 3.30029297 7.60839844 C0 2.232411 0 2.232411 0 0 Z " fill="#FECD55" transform="translate(94,144)"/>
<path d="M0 0 C-1.23262393 4.06965662 -2.69701073 7.44750019 -4.984375 11.02734375 C-5.58282227 11.97270996 -6.18126953 12.91807617 -6.79785156 13.89208984 C-7.44206055 14.8970752 -8.08626953 15.90206055 -8.75 16.9375 C-10.11576657 19.09430327 -11.48032043 21.25187488 -12.84375 23.41015625 C-13.88402344 25.05395264 -13.88402344 25.05395264 -14.9453125 26.73095703 C-18.09850062 31.74773328 -21.17859108 36.807869 -24.25 41.875 C-24.7665918 42.72698975 -25.28318359 43.57897949 -25.81542969 44.45678711 C-26.33524414 45.31409424 -26.85505859 46.17140137 -27.390625 47.0546875 C-27.92620529 47.89822281 -28.46178558 48.74175812 -29.01359558 49.6108551 C-30.54256792 52.21954282 -31.8104719 54.71878972 -33.05958557 57.45629883 C-38.89890525 69.490689 -38.89890525 69.490689 -44.07339859 72.00912857 C-49.93360259 73.52156097 -55.89912318 73.0689382 -61.88671875 72.7578125 C-63.79901577 72.72418467 -65.71146927 72.69858843 -67.62397766 72.68063354 C-72.6276545 72.61230796 -77.62172973 72.43596245 -82.62164307 72.23596191 C-87.73537233 72.05088179 -92.85067484 71.96942397 -97.96679688 71.87890625 C-107.98205537 71.68659329 -117.99022582 71.37996714 -128 71 C-128.06058594 70.34773438 -128.12117188 69.69546875 -128.18359375 69.0234375 C-128.30927734 67.71246094 -128.30927734 67.71246094 -128.4375 66.375 C-128.51927994 65.45762054 -128.60105988 64.54024109 -128.68531799 63.59506226 C-128.93740534 60.87143034 -128.93740534 60.87143034 -129.97241211 57.85400391 C-130.01162212 53.79767583 -128.20213719 52.27121964 -125.49232483 49.39144897 C-124.8155217 48.71313019 -124.13871857 48.0348114 -123.44140625 47.3359375 C-122.7454686 46.6214444 -122.04953094 45.90695129 -121.33250427 45.17080688 C-119.8492161 43.66082932 -118.35648455 42.16007956 -116.85522461 40.66796875 C-114.59534594 38.40784944 -112.39074109 36.10240057 -110.18554688 33.7890625 C-100.9191076 24.32566226 -94.04585243 19.84284183 -81 18 C-78.44115742 17.39646092 -75.88880083 16.76474945 -73.34375 16.10546875 C-70.72955606 15.46448533 -68.11512443 14.82465855 -65.5 14.1875 C-64.45882019 13.93379135 -64.45882019 13.93379135 -63.39660645 13.67495728 C-48.82499875 10.13365434 -34.19087897 6.92038361 -19.52929688 3.77490234 C-14.8788432 2.75383566 -10.24744829 1.65698435 -5.61816406 0.54418945 C-3 0 -3 0 0 0 Z " fill="#9CBFE1" transform="translate(445,308)"/>
<path d="M0 0 C13.53 0 27.06 0 41 0 C41 27.06 41 54.12 41 82 C27.47 82 13.94 82 0 82 C0 54.94 0 27.88 0 0 Z " fill="#FB8B28" transform="translate(51,345)"/>
<path d="M0 0 C9.9 0 19.8 0 30 0 C30 26.07 30 52.14 30 79 C22.125 72.25 22.125 72.25 18.62524414 68.73876953 C17.84496353 67.95841339 17.06468292 67.17805725 16.26075745 66.37405396 C15.44380905 65.55194427 14.62686066 64.72983459 13.78515625 63.8828125 C12.92941513 63.02565643 12.07367401 62.16850037 11.19200134 61.28536987 C8.47979535 58.56760046 5.7711017 55.84636109 3.0625 53.125 C1.21572631 51.27320658 -0.63127653 49.42164166 -2.47851562 47.5703125 C-6.98833201 43.04951565 -11.49527569 38.52587054 -16 34 C-14.61902341 29.5251617 -12.85081321 25.46797526 -10.7421875 21.2890625 C-10.43427277 20.67606293 -10.12635803 20.06306335 -9.80911255 19.43148804 C-8.83484937 17.49406342 -7.85503083 15.5595124 -6.875 13.625 C-6.2092647 12.30357212 -5.54389647 10.98195924 -4.87890625 9.66015625 C-3.25751194 6.43758453 -1.62861869 3.21896696 0 0 Z " fill="#FDE993" transform="translate(219,126)"/>
<path d="M0 0 C9.9 0 19.8 0 30 0 C35.12368676 9.69346143 35.12368676 9.69346143 37.37109375 13.98828125 C38.91144606 16.93116778 40.46267664 19.86714528 42.03515625 22.79296875 C42.58042969 23.83066406 43.12570312 24.86835938 43.6875 25.9375 C44.40486328 27.28134766 44.40486328 27.28134766 45.13671875 28.65234375 C46.14718508 31.40026349 45.95845588 32.28770177 45 35 C43.8167572 36.54400635 43.8167572 36.54400635 42.31616211 38.02441406 C41.47540382 38.86483246 41.47540382 38.86483246 40.61766052 39.722229 C40.01035599 40.31404968 39.40305145 40.90587036 38.77734375 41.515625 C38.15726944 42.13145447 37.53719513 42.74728394 36.89833069 43.3817749 C34.91832095 45.34500635 32.92813081 47.29754436 30.9375 49.25 C29.59241465 50.58003748 28.24800512 51.91075879 26.90429688 53.2421875 C23.61065094 56.50277537 20.30783661 59.75381188 17 63 C15.00879032 62.00556052 13.01875821 61.00954692 11.03515625 60 C10.38417969 59.67 9.73320312 59.34 9.0625 59 C8.08990234 58.505 8.08990234 58.505 7.09765625 58 C4.77909913 56.89469158 2.38483242 55.95393297 0 55 C0 36.85 0 18.7 0 0 Z " fill="#BFD8D9" transform="translate(290,290)"/>
<path d="M0 0 C6.09300852 3.34875587 9.57769094 8.54557282 11.75 15.0625 C12.61056011 21.18477052 11.6078574 25.71903836 8.3828125 30.98046875 C5.03192864 35.25324649 0.8943877 38.3477041 -4.25 40.0625 C-12.25145463 40.71567997 -17.16536444 39.78559037 -23.875 35.3125 C-28.88422312 30.5669202 -30.50037338 26.86710435 -30.6875 20.0625 C-30.44199431 13.50749798 -29.27829428 9.48518483 -25 4.375 C-16.96944124 -2.37796987 -9.91674821 -4.29477216 0 0 Z " fill="#4F2820" transform="translate(123.25,251.9375)"/>
<path d="M0 0 C4.15778498 0.07573379 6.22144865 1.40894865 9.1875 4.375 C11.68111571 3.17118552 13.86893083 1.92071278 16.1875 0.375 C18.90758405 -0.09662748 21.46442969 -0.07884505 24.1875 0.375 C26.79576403 2.49421453 27.10382466 3.90432623 27.6875 7.1875 C27.01130636 11.49823445 24.92593726 14.06931502 22.1875 17.375 C23.425 18.674375 23.425 18.674375 24.6875 20 C26.68374561 22.40456858 27.17436262 23.29289136 27.6875 26.5 C27.11032639 29.81874823 26.81994154 31.23614125 24.1875 33.375 C20.27510228 33.95223901 17.74846769 34.3247256 14.33203125 32.24609375 C12.6875 30.875 12.6875 30.875 10.1875 28.375 C9.341875 29.2 8.49625 30.025 7.625 30.875 C5.01243975 33.04286914 4.11032283 33.38697577 0.5625 33.9375 C-2.8125 33.375 -2.8125 33.375 -5.25 31.75 C-7.32364192 28.59806429 -7.48109841 27.08943562 -6.8125 23.375 C-5.32468453 21.10981381 -3.69643594 19.35313274 -1.8125 17.375 C-2.86233684 15.11381295 -3.78946309 13.39974335 -5.5 11.5625 C-7.46533941 8.28693432 -6.6811313 5.98316076 -5.8125 2.375 C-3.8125 0.375 -3.8125 0.375 0 0 Z " fill="#4A231C" transform="translate(419.8125,102.625)"/>
<path d="M0 0 C3.83924258 0.59584838 6.73767379 1.7313137 10.140625 3.58984375 C11.12160156 4.12254883 12.10257813 4.65525391 13.11328125 5.20410156 C14.66595703 6.06213379 14.66595703 6.06213379 16.25 6.9375 C17.31089844 7.51854492 18.37179688 8.09958984 19.46484375 8.69824219 C26.02040585 12.30617368 32.5387034 15.97575328 39 19.75 C39.71704102 20.16757568 40.43408203 20.58515137 41.17285156 21.01538086 C42.80045189 21.97960582 44.40362515 22.98491382 46 24 C46 24.33 46 24.66 46 25 C25.54 25 5.08 25 -16 25 C-7.94763514 12.34628378 -7.94763514 12.34628378 -4.0625 6.3125 C-3.66482422 5.69439453 -3.26714844 5.07628906 -2.85742188 4.43945312 C-1.90519061 2.95947924 -0.95263388 1.47971476 0 0 Z " fill="#F6C553" transform="translate(230,88)"/>
<path d="M0 0 C2.87556685 1.20966698 3.80359663 2.8907296 5.50585938 5.48461914 C6.43398438 6.88744141 6.43398438 6.88744141 7.38085938 8.31860352 C8.01507813 9.30280273 8.64929688 10.28700195 9.30273438 11.30102539 C9.95242188 12.28135742 10.60210937 13.26168945 11.27148438 14.27172852 C16.05273438 21.56916155 16.05273438 21.56916155 16.05273438 23.86352539 C-3.41726563 23.86352539 -22.88726562 23.86352539 -42.94726562 23.86352539 C-40.21290384 21.12916361 -38.24811707 19.78685947 -34.89648438 18.00805664 C-33.89391602 17.47132324 -32.89134766 16.93458984 -31.85839844 16.3815918 C-30.79459961 15.81875488 -29.73080078 15.25591797 -28.63476562 14.67602539 C-19.93660576 10.0705397 -19.93660576 10.0705397 -11.38867188 5.19555664 C-10.75034424 4.81616943 -10.1120166 4.43678223 -9.4543457 4.04589844 C-7.8158982 3.05991592 -6.18591332 2.05990843 -4.55664062 1.05883789 C-1.94726562 -0.13647461 -1.94726562 -0.13647461 0 0 Z " fill="#9BBEE1" transform="translate(307.947265625,252.136474609375)"/>
<path d="M0 0 C10.18197135 2.0663095 20.38182651 4.01542168 30.59408569 5.92495728 C45.24512557 8.66553448 59.83827755 11.57189134 74.375 14.875 C74.045 15.535 73.715 16.195 73.375 16.875 C41.80569424 21.85458716 7.61812198 15.59049289 -20.625 0.875 C-21.285 0.215 -21.945 -0.445 -22.625 -1.125 C-15.63307328 -4.72690164 -7.34660926 -1.50589355 0 0 Z " fill="#FCE1B5" transform="translate(176.625,416.125)"/>
<path d="M0 0 C0.66 0.66 1.32 1.32 2 2 C3.98821313 2.39764263 5.98944339 2.73775349 8 3 C5.96095141 8.22618659 3.53839482 13.21961052 1.0625 18.25 C0.61970703 19.17296875 0.17691406 20.0959375 -0.27929688 21.046875 C-0.71177734 21.9234375 -1.14425781 22.8 -1.58984375 23.703125 C-1.98034912 24.50395508 -2.37085449 25.30478516 -2.77319336 26.12988281 C-4 28 -4 28 -7 29 C-10.00219227 27.12634266 -12.45732153 24.4462736 -15 22 C-15.50934082 21.51644043 -16.01868164 21.03288086 -16.54345703 20.53466797 C-18.20641603 18.95054554 -19.85521823 17.35297558 -21.5 15.75 C-22.31102173 14.97136597 -22.31102173 14.97136597 -23.13842773 14.17700195 C-24.48484013 12.84185117 -25.74959496 11.42546175 -27 10 C-27 9.01 -27 8.02 -27 7 C-24.08416415 6.01834721 -21.1671912 5.04011699 -18.25 4.0625 C-17.425 3.78470703 -16.6 3.50691406 -15.75 3.22070312 C-14.95078125 2.95322266 -14.1515625 2.68574219 -13.328125 2.41015625 C-12.5949707 2.16402588 -11.86181641 1.91789551 -11.10644531 1.66430664 C-7.31048408 0.46717978 -4.01029064 -0.31660189 0 0 Z " fill="#FADFB4" transform="translate(196,123)"/>
<path d="M0 0 C1.09964408 3.35716883 0.88421538 5.75499861 0.22265625 9.203125 C0.03896484 10.1828125 -0.14472656 11.1625 -0.33398438 12.171875 C-0.53314453 13.18765625 -0.73230469 14.2034375 -0.9375 15.25 C-1.13279297 16.28125 -1.32808594 17.3125 -1.52929688 18.375 C-2.01203382 20.91819952 -2.50252017 23.45965046 -3 26 C-12.28394492 28.64521806 -21.40029987 30.7696843 -31 32 C-25.19316781 24.88094773 -18.63714556 18.52625188 -12.125 12.0625 C-10.94768362 10.89020796 -9.77059826 9.71768386 -8.59375 8.54492188 C-5.73182511 5.69393018 -2.86678543 2.84610385 0 0 Z " fill="#BED6D7" transform="translate(408,277)"/>
<path d="M0 0 C7.11905227 5.80683219 13.47374812 12.36285444 19.9375 18.875 C21.10979204 20.05231638 22.28231614 21.22940174 23.45507812 22.40625 C26.30606982 25.26817489 29.15389615 28.13321457 32 31 C28.56864437 32.14378521 27.22371211 31.81386401 23.74609375 31.0390625 C22.21758789 30.70261719 22.21758789 30.70261719 20.65820312 30.359375 C19.59537109 30.11703125 18.53253906 29.8746875 17.4375 29.625 C16.37080078 29.39039063 15.30410156 29.15578125 14.20507812 28.9140625 C6.30655357 27.15327679 6.30655357 27.15327679 4 26 C3.40576172 23.93041992 3.40576172 23.93041992 2.9296875 21.23046875 C2.75566406 20.25916016 2.58164063 19.28785156 2.40234375 18.28710938 C2.22832031 17.26423828 2.05429688 16.24136719 1.875 15.1875 C1.69324219 14.17623047 1.51148438 13.16496094 1.32421875 12.12304688 C0.59776733 7.99101307 0 4.20916566 0 0 Z " fill="#FBE892" transform="translate(130,113)"/>
<path d="M0 0 C1.90625 0.41015625 1.90625 0.41015625 4.40625 1.91015625 C6.51761591 5.42909943 6.84862143 8.41122356 5.90625 12.41015625 C3.36392292 15.40112929 1.7487803 16.25218182 -2.09375 16.97265625 C-6.19764613 16.20317573 -7.63334272 14.73894257 -10.09375 11.41015625 C-10.80335213 7.62561157 -10.37176176 5.94301212 -8.59375 2.53515625 C-5.55267495 -0.04975755 -3.89338955 -0.28328767 0 0 Z " fill="#4B241D" transform="translate(367.09375,155.58984375)"/>
<path d="M0 0 C2.4375 1.625 2.4375 1.625 4 4 C4.60605429 7.63632575 4.47161336 9.28314769 2.4375 12.375 C-0.95870843 14.63913895 -3.00099302 14.64269755 -7 14 C-9.5 11.875 -9.5 11.875 -11 9 C-10.936318 5.81590023 -10.51040601 3.85067668 -8.875 1.125 C-5.83167192 -0.70099685 -3.45750445 -0.42460581 0 0 Z " fill="#F9DEB3" transform="translate(117,264)"/>
</svg>
